<svg width="401" height="30" viewBox="0 0 401 30" fill="none" xmlns="http://www.w3.org/2000/svg">
<path d="M10.4 29.28C8.45333 29.28 6.69333 28.9467 5.12 28.28C3.57333 27.6133 2.34667 26.6533 1.44 25.4C0.533333 24.1467 0.0666667 22.6667 0.0400001 20.96H6.04C6.12 22.1067 6.52 23.0133 7.24 23.68C7.98667 24.3467 9 24.68 10.28 24.68C11.5867 24.68 12.6133 24.3733 13.36 23.76C14.1067 23.12 14.48 22.2933 14.48 21.28C14.48 20.4533 14.2267 19.7733 13.72 19.24C13.2133 18.7067 12.5733 18.2933 11.8 18C11.0533 17.68 10.0133 17.3333 8.68 16.96C6.86667 16.4267 5.38667 15.9067 4.24 15.4C3.12 14.8667 2.14667 14.08 1.32 13.04C0.52 11.9733 0.12 10.56 0.12 8.8C0.12 7.14667 0.533334 5.70667 1.36 4.48C2.18667 3.25333 3.34667 2.32 4.84 1.68C6.33333 1.01333 8.04 0.68 9.96 0.68C12.84 0.68 15.1733 1.38667 16.96 2.8C18.7733 4.18667 19.7733 6.13333 19.96 8.64H13.8C13.7467 7.68 13.3333 6.89333 12.56 6.28C11.8133 5.64 10.8133 5.32 9.56 5.32C8.46667 5.32 7.58667 5.6 6.92 6.16C6.28 6.72 5.96 7.53333 5.96 8.6C5.96 9.34667 6.2 9.97333 6.68 10.48C7.18667 10.96 7.8 11.36 8.52 11.68C9.26667 11.9733 10.3067 12.32 11.64 12.72C13.4533 13.2533 14.9333 13.7867 16.08 14.32C17.2267 14.8533 18.2133 15.6533 19.04 16.72C19.8667 17.7867 20.28 19.1867 20.28 20.92C20.28 22.4133 19.8933 23.8 19.12 25.08C18.3467 26.36 17.2133 27.3867 15.72 28.16C14.2267 28.9067 12.4533 29.28 10.4 29.28ZM45.735 17.44C45.735 18.24 45.6817 18.96 45.575 19.6H29.375C29.5083 21.2 30.0683 22.4533 31.055 23.36C32.0417 24.2667 33.255 24.72 34.695 24.72C36.775 24.72 38.255 23.8267 39.135 22.04H45.175C44.535 24.1733 43.3083 25.9333 41.495 27.32C39.6817 28.68 37.455 29.36 34.815 29.36C32.6817 29.36 30.7617 28.8933 29.055 27.96C27.375 27 26.055 25.6533 25.095 23.92C24.1617 22.1867 23.695 20.1867 23.695 17.92C23.695 15.6267 24.1617 13.6133 25.095 11.88C26.0283 10.1467 27.335 8.81333 29.015 7.88C30.695 6.94667 32.6283 6.48 34.815 6.48C36.9217 6.48 38.8017 6.93333 40.455 7.84C42.135 8.74667 43.4283 10.04 44.335 11.72C45.2683 13.3733 45.735 15.28 45.735 17.44ZM39.935 15.84C39.9083 14.4 39.3883 13.2533 38.375 12.4C37.3617 11.52 36.1217 11.08 34.655 11.08C33.2683 11.08 32.095 11.5067 31.135 12.36C30.2017 13.1867 29.6283 14.3467 29.415 15.84H39.935ZM218.578 17.92C218.578 15.6267 219.044 13.6267 219.978 11.92C220.911 10.1867 222.204 8.85333 223.858 7.92C225.511 6.96 227.404 6.48 229.538 6.48C232.284 6.48 234.551 7.17333 236.338 8.56C238.151 9.92 239.364 11.84 239.978 14.32H233.938C233.618 13.36 233.071 12.6133 232.298 12.08C231.551 11.52 230.618 11.24 229.498 11.24C227.898 11.24 226.631 11.8267 225.698 13C224.764 14.1467 224.298 15.7867 224.298 17.92C224.298 20.0267 224.764 21.6667 225.698 22.84C226.631 23.9867 227.898 24.56 229.498 24.56C231.764 24.56 233.244 23.5467 233.938 21.52H239.978C239.364 23.92 238.151 25.8267 236.338 27.24C234.524 28.6533 232.258 29.36 229.538 29.36C227.404 29.36 225.511 28.8933 223.858 27.96C222.204 27 220.911 25.6667 219.978 23.96C219.044 22.2267 218.578 20.2133 218.578 17.92ZM253.92 29.36C251.787 29.36 249.867 28.8933 248.16 27.96C246.454 27 245.107 25.6533 244.12 23.92C243.16 22.1867 242.68 20.1867 242.68 17.92C242.68 15.6533 243.174 13.6533 244.16 11.92C245.174 10.1867 246.547 8.85333 248.28 7.92C250.014 6.96 251.947 6.48 254.08 6.48C256.214 6.48 258.147 6.96 259.88 7.92C261.614 8.85333 262.974 10.1867 263.96 11.92C264.974 13.6533 265.48 15.6533 265.48 17.92C265.48 20.1867 264.96 22.1867 263.92 23.92C262.907 25.6533 261.52 27 259.76 27.96C258.027 28.8933 256.08 29.36 253.92 29.36ZM253.92 24.48C254.934 24.48 255.88 24.24 256.76 23.76C257.667 23.2533 258.387 22.5067 258.92 21.52C259.454 20.5333 259.72 19.3333 259.72 17.92C259.72 15.8133 259.16 14.2 258.04 13.08C256.947 11.9333 255.6 11.36 254 11.36C252.4 11.36 251.054 11.9333 249.96 13.08C248.894 14.2 248.36 15.8133 248.36 17.92C248.36 20.0267 248.88 21.6533 249.92 22.8C250.987 23.92 252.32 24.48 253.92 24.48ZM281.868 6.52C284.508 6.52 286.641 7.36 288.268 9.04C289.895 10.6933 290.708 13.0133 290.708 16V29H285.108V16.76C285.108 15 284.668 13.6533 283.788 12.72C282.908 11.76 281.708 11.28 280.188 11.28C278.641 11.28 277.415 11.76 276.508 12.72C275.628 13.6533 275.188 15 275.188 16.76V29H269.588V6.84H275.188V9.6C275.935 8.64 276.881 7.89333 278.028 7.36C279.201 6.8 280.481 6.52 281.868 6.52ZM305.873 29.36C303.74 29.36 301.82 28.8933 300.113 27.96C298.407 27 297.06 25.6533 296.073 23.92C295.113 22.1867 294.633 20.1867 294.633 17.92C294.633 15.6533 295.127 13.6533 296.113 11.92C297.127 10.1867 298.5 8.85333 300.233 7.92C301.967 6.96 303.9 6.48 306.033 6.48C308.167 6.48 310.1 6.96 311.833 7.92C313.567 8.85333 314.927 10.1867 315.913 11.92C316.927 13.6533 317.433 15.6533 317.433 17.92C317.433 20.1867 316.913 22.1867 315.873 23.92C314.86 25.6533 313.473 27 311.713 27.96C309.98 28.8933 308.033 29.36 305.873 29.36ZM305.873 24.48C306.887 24.48 307.833 24.24 308.713 23.76C309.62 23.2533 310.34 22.5067 310.873 21.52C311.407 20.5333 311.673 19.3333 311.673 17.92C311.673 15.8133 311.113 14.2 309.993 13.08C308.9 11.9333 307.553 11.36 305.953 11.36C304.353 11.36 303.007 11.9333 301.913 13.08C300.847 14.2 300.313 15.8133 300.313 17.92C300.313 20.0267 300.833 21.6533 301.873 22.8C302.94 23.92 304.273 24.48 305.873 24.48ZM330.021 29.36C328.208 29.36 326.581 29.04 325.141 28.4C323.701 27.7333 322.555 26.84 321.701 25.72C320.875 24.6 320.421 23.36 320.341 22H325.981C326.088 22.8533 326.501 23.56 327.221 24.12C327.968 24.68 328.888 24.96 329.981 24.96C331.048 24.96 331.875 24.7467 332.461 24.32C333.075 23.8933 333.381 23.3467 333.381 22.68C333.381 21.96 333.008 21.4267 332.261 21.08C331.541 20.7067 330.381 20.3067 328.781 19.88C327.128 19.48 325.768 19.0667 324.701 18.64C323.661 18.2133 322.755 17.56 321.981 16.68C321.235 15.8 320.861 14.6133 320.861 13.12C320.861 11.8933 321.208 10.7733 321.901 9.76C322.621 8.74666 323.635 7.94667 324.941 7.36C326.275 6.77333 327.835 6.48 329.621 6.48C332.261 6.48 334.368 7.14667 335.941 8.48C337.515 9.78667 338.381 11.56 338.541 13.8H333.181C333.101 12.92 332.728 12.2267 332.061 11.72C331.421 11.1867 330.555 10.92 329.461 10.92C328.448 10.92 327.661 11.1067 327.101 11.48C326.568 11.8533 326.301 12.3733 326.301 13.04C326.301 13.7867 326.675 14.36 327.421 14.76C328.168 15.1333 329.328 15.52 330.901 15.92C332.501 16.32 333.821 16.7333 334.861 17.16C335.901 17.5867 336.795 18.2533 337.541 19.16C338.315 20.04 338.715 21.2133 338.741 22.68C338.741 23.96 338.381 25.1067 337.661 26.12C336.968 27.1333 335.955 27.9333 334.621 28.52C333.315 29.08 331.781 29.36 330.021 29.36ZM341.898 17.92C341.898 15.6267 342.365 13.6267 343.298 11.92C344.231 10.1867 345.525 8.85333 347.178 7.92C348.831 6.96 350.725 6.48 352.858 6.48C355.605 6.48 357.871 7.17333 359.658 8.56C361.471 9.92 362.685 11.84 363.298 14.32H357.258C356.938 13.36 356.391 12.6133 355.618 12.08C354.871 11.52 353.938 11.24 352.818 11.24C351.218 11.24 349.951 11.8267 349.018 13C348.085 14.1467 347.618 15.7867 347.618 17.92C347.618 20.0267 348.085 21.6667 349.018 22.84C349.951 23.9867 351.218 24.56 352.818 24.56C355.085 24.56 356.565 23.5467 357.258 21.52H363.298C362.685 23.92 361.471 25.8267 359.658 27.24C357.845 28.6533 355.578 29.36 352.858 29.36C350.725 29.36 348.831 28.8933 347.178 27.96C345.525 27 344.231 25.6667 343.298 23.96C342.365 22.2267 341.898 20.2133 341.898 17.92ZM377.241 29.36C375.107 29.36 373.187 28.8933 371.481 27.96C369.774 27 368.427 25.6533 367.441 23.92C366.481 22.1867 366.001 20.1867 366.001 17.92C366.001 15.6533 366.494 13.6533 367.481 11.92C368.494 10.1867 369.867 8.85333 371.601 7.92C373.334 6.96 375.267 6.48 377.401 6.48C379.534 6.48 381.467 6.96 383.201 7.92C384.934 8.85333 386.294 10.1867 387.281 11.92C388.294 13.6533 388.801 15.6533 388.801 17.92C388.801 20.1867 388.281 22.1867 387.241 23.92C386.227 25.6533 384.841 27 383.081 27.96C381.347 28.8933 379.401 29.36 377.241 29.36ZM377.241 24.48C378.254 24.48 379.201 24.24 380.081 23.76C380.987 23.2533 381.707 22.5067 382.241 21.52C382.774 20.5333 383.041 19.3333 383.041 17.92C383.041 15.8133 382.481 14.2 381.361 13.08C380.267 11.9333 378.921 11.36 377.321 11.36C375.721 11.36 374.374 11.9333 373.281 13.08C372.214 14.2 371.681 15.8133 371.681 17.92C371.681 20.0267 372.201 21.6533 373.241 22.8C374.307 23.92 375.641 24.48 377.241 24.48ZM400.148 0.599998L399.508 19.92H394.788L394.108 0.599998H400.148ZM397.268 29.28C396.255 29.28 395.415 28.9733 394.748 28.36C394.108 27.72 393.788 26.9333 393.788 26C393.788 25.0667 394.108 24.2933 394.748 23.68C395.415 23.04 396.255 22.72 397.268 22.72C398.255 22.72 399.068 23.04 399.708 23.68C400.348 24.2933 400.668 25.0667 400.668 26C400.668 26.9333 400.348 27.72 399.708 28.36C399.068 28.9733 398.255 29.28 397.268 29.28Z" fill="#131922"/>
<path d="M65.0738 13.68V24.32H74.9938V29H64.2338L59.5938 26.32V11.68L64.2338 9H74.9938V13.68H65.0738ZM97.9797 26.52L93.3397 29.2H84.8197L80.1797 26.52V11.48L84.8197 8.8H93.3397L97.9797 11.48V26.52ZM85.6597 13.48V24.52H92.4997V13.48H85.6597ZM121.769 11.48V29H116.289V13.48H109.449V29H103.969V8.8H108.489L109.449 10.44L112.289 8.8H117.129L121.769 11.48ZM144.358 24.32V29H132.398L127.758 26.32V11.48L132.398 8.8H139.718L144.358 11.48V21.04H133.238V24.32H144.358ZM133.238 13.48V16.92H138.878V13.48H133.238ZM155.855 13.68V24.32H165.775V29H155.015L150.375 26.32V11.68L155.015 9H165.775V13.68H155.855ZM169.361 13.68V9H173.041V5.64L178.521 2.48V9H182.921V13.68H178.521V24.32H182.921V29H177.681L173.041 26.32V13.68H169.361ZM204.709 24.32V29H192.749L188.109 26.32V11.48L192.749 8.8H200.069L204.709 11.48V21.04H193.589V24.32H204.709ZM193.589 13.48V16.92H199.229V13.48H193.589Z" fill="#FB8C00"/>
</svg>
